<svg width="400" height="400" xmlns="http://www.w3.org/2000/svg">
  
  <circle cx="200" cy="40" r="20" fill="#49243E" />
  
  <circle cx="170" cy="90" r="20" fill="#49243E" />
  <circle cx="230" cy="90" r="20" fill="#49243E" />

  <circle cx="140" cy="140" r="20" fill="#49243E" />
  <circle cx="200" cy="140" r="20" fill="#49243E" />
  <circle cx="260" cy="140" r="20" fill="#49243E" />
  
  <circle cx="110" cy="190" r="20" fill="#49243E" />
  <circle cx="170" cy="190" r="20" fill="#49243E" />
  <circle cx="230" cy="190" r="20" fill="#49243E" />
  <circle cx="290" cy="190" r="20" fill="#49243E" />
  
  <circle cx="80" cy="240" r="20" fill="#49243E" />
  <circle cx="140" cy="240" r="20" fill="#49243E" />
  <circle cx="200" cy="240" r="20" fill="#49243E" />
  <circle cx="260" cy="240" r="20" fill="#49243E" />
  <circle cx="320" cy="240" r="20" fill="#49243E" />

  <circle cx="50" cy="290" r="20" fill="#49243E" />
  <circle cx="110" cy="290" r="20" fill="#49243E" />
  <circle cx="170" cy="290" r="20" fill="#49243E" />
  <circle cx="230" cy="290" r="20" fill="#49243E" />
  <circle cx="290" cy="290" r="20" fill="#49243E" />
  <circle cx="350" cy="290" r="20" fill="#49243E" />
</svg>
