<svg version="1.1" id="Layer_1" xmlns="http://www.w3.org/2000/svg" xmlns:xlink="http://www.w3.org/1999/xlink" x="0px" y="0px"
	 width="100%" viewBox="0 0 216 185" enable-background="new 0 0 216 185" xml:space="preserve">
<path fill="#FEFEFF" opacity="1.000000" stroke="none" 
	d="
M217.000000,67.000000 
	C217.000000,106.975365 217.000000,146.450729 217.000000,185.963043 
	C145.069565,185.963043 73.139091,185.963043 1.104314,185.963043 
	C1.104314,124.441498 1.104314,62.882755 1.104314,1.162007 
	C72.999702,1.162007 144.999817,1.162007 217.000000,1.162007 
	C217.000000,22.860636 217.000000,44.680317 217.000000,67.000000 
M68.010483,15.003132 
	C68.010483,15.003132 67.999573,14.961850 67.640877,14.761847 
	C67.640877,14.761847 67.242455,14.661916 66.819641,14.214518 
	C65.603973,14.109889 64.388306,14.005260 62.343811,13.940705 
	C61.246639,13.992688 60.149471,14.044670 58.225540,13.983809 
	C54.359959,14.876769 50.494377,15.769730 46.204693,16.607939 
	C45.764256,16.686758 45.323814,16.765579 44.202263,17.073109 
	C43.793827,17.323664 43.385395,17.574219 42.579865,17.929722 
	C42.426273,18.271299 42.272686,18.612879 41.713291,19.398712 
	C38.240398,19.668835 37.022671,21.832985 36.905365,25.659533 
	C37.251122,27.720371 37.596878,29.781210 37.363792,32.002731 
	C37.185974,32.714275 37.008152,33.425819 36.876183,34.703728 
	C36.850513,35.081078 36.824844,35.458427 36.420746,36.343193 
	C37.237480,38.576427 38.054211,40.809658 38.754574,43.557331 
	C38.497196,44.017353 38.239815,44.477379 37.276531,45.031689 
	C35.777386,48.421265 34.278240,51.810844 32.876614,55.497059 
	C32.876614,55.497059 32.924717,55.805592 32.407272,56.035713 
	C32.194725,56.763649 31.982180,57.491585 31.895298,58.895023 
	C31.925638,59.581207 31.955976,60.267391 31.206789,61.126740 
	C29.617184,64.261055 28.293514,67.372093 31.963083,70.947281 
	C31.982037,73.969055 32.000992,76.990829 31.981258,80.910019 
	C31.977703,83.615532 31.974150,86.321045 31.961315,89.405609 
	C31.961315,89.405609 32.009449,89.781693 31.272846,90.290062 
	C31.182352,109.545883 31.081385,128.801682 31.040976,148.057602 
	C31.039415,148.800980 31.619946,149.545547 32.285324,150.869232 
	C34.494522,153.914764 36.703724,156.960312 39.033764,160.732773 
	C40.621693,165.902725 45.493782,166.681931 49.548950,167.943497 
	C62.394226,171.939621 75.701614,172.774170 89.017921,171.772781 
	C97.003792,171.172256 104.900192,169.382111 113.117302,168.615372 
	C114.131638,170.966354 114.596962,173.842117 116.255547,175.577301 
	C123.363197,183.013260 130.124283,182.718414 139.814056,175.093185 
	C140.384293,175.403839 141.048660,175.612778 141.510712,176.040329 
	C148.787750,182.774170 156.155273,182.714874 163.597672,176.151520 
	C167.277267,178.686737 171.204971,180.148193 175.752747,179.007950 
	C181.508911,177.564728 185.108841,173.691849 186.819412,168.288284 
	C188.307602,163.587158 186.773300,159.202469 182.761261,156.457077 
	C179.861298,154.472672 176.253143,153.523224 173.104004,151.337723 
	C175.697357,146.659515 176.346069,141.919235 172.795731,137.490326 
	C169.606964,133.512497 165.940125,129.434784 160.269775,130.478836 
	C153.863159,131.658478 148.847534,135.205231 146.195969,141.890320 
	C141.920288,138.482147 136.939774,140.089691 132.100220,139.008881 
	C132.047958,134.313034 131.995697,129.617203 131.982086,123.995270 
	C131.973618,113.683693 131.965149,103.372124 132.027588,92.118027 
	C132.344467,84.372032 132.889877,76.625458 132.870544,68.880302 
	C132.862320,65.585548 131.671967,62.293743 131.576996,58.620216 
	C131.064835,57.706196 130.552673,56.792171 129.980545,55.139736 
	C129.614746,53.752083 129.248962,52.364426 128.900009,50.291229 
	C128.827148,50.074566 128.754303,49.857906 129.080017,49.352509 
	C126.694046,45.916683 131.992172,44.981606 131.428085,42.144493 
	C130.777786,42.180470 130.127487,42.216450 128.794312,41.874176 
	C128.470169,41.475124 128.146011,41.076077 127.772377,40.088516 
	C127.985916,39.383888 128.199448,38.679264 128.279816,38.414082 
	C127.190338,38.941532 126.087334,39.475533 124.994736,39.153038 
	C125.687569,34.735519 126.380409,30.318001 127.101662,25.172663 
	C126.321831,19.968418 122.136940,19.168146 118.101433,17.465643 
	C117.250137,17.298079 116.398842,17.130516 115.177368,16.230822 
	C114.117363,16.133722 113.057365,16.036623 111.996765,15.997579 
	C111.996765,15.997579 112.046555,15.967721 111.632492,15.326030 
	C109.073578,14.913043 106.514671,14.500055 103.228745,13.993361 
	C101.915314,14.300831 100.601883,14.608300 98.437279,14.982441 
	C97.302261,14.970594 96.167252,14.958748 94.658020,14.307619 
	C92.356949,13.536921 90.018547,12.023617 87.761932,12.137071 
	C81.413208,12.456258 75.098129,13.444902 68.382126,14.323125 
	C68.095940,14.460123 67.957840,14.687348 68.010483,15.003132 
M143.982910,34.924229 
	C143.903061,34.609074 143.835037,34.289749 143.727432,33.984371 
	C143.714935,33.948906 143.400787,33.942902 143.365372,34.003887 
	C142.858231,34.877129 142.374969,35.764240 141.885971,36.648014 
	C142.080917,36.783451 142.275848,36.918888 142.470795,37.054321 
	C142.958115,36.542110 143.445435,36.029896 143.982910,34.924229 
M136.837570,40.461941 
	C137.571777,40.566666 138.306000,40.671391 139.040207,40.776119 
	C139.051239,40.552437 139.062256,40.328758 139.073288,40.105076 
	C138.462051,40.105076 137.850830,40.105076 136.837570,40.461941 
M130.299911,34.404667 
	C130.002304,34.625725 129.704697,34.846786 129.407089,35.067841 
	C129.588440,35.257614 129.769791,35.447392 129.951126,35.637173 
	C130.185577,35.349491 130.420013,35.061810 130.299911,34.404667 
M140.484451,29.579025 
	C140.174423,29.866091 139.864410,30.153154 139.554382,30.440228 
	C139.667267,30.547333 139.864838,30.758848 139.880539,30.746113 
	C140.191101,30.494221 140.480591,30.216343 140.484451,29.579025 
M134.525650,41.561810 
	C134.463898,41.812260 134.402161,42.062710 134.340408,42.313160 
	C134.497742,42.151157 134.655060,41.989159 134.525650,41.561810 
M135.483353,30.633604 
	C135.483353,30.633604 135.590149,30.445927 135.590149,30.445927 
	C135.590149,30.445927 135.372421,30.473606 135.483353,30.633604 
M141.521576,32.403809 
	C141.521576,32.403809 141.596954,32.523891 141.521576,32.403809 
z"/>
<path fill="#C6E0ED" opacity="1.000000" stroke="none" 
	d="
M36.799175,35.835777 
	C36.824844,35.458427 36.850513,35.081078 37.139389,34.231056 
	C37.582607,33.119610 37.762619,32.480827 37.942635,31.842049 
	C37.596878,29.781210 37.251122,27.720371 37.270596,25.480118 
	C39.527267,26.580309 41.418705,27.859915 43.503010,29.445847 
	C44.645718,29.844221 45.595558,29.936270 46.529797,30.000870 
	C46.514194,29.973417 46.451107,29.976269 46.644928,30.339745 
	C47.913563,30.812283 48.988377,30.921341 50.041245,31.000851 
	C50.019299,30.971300 49.949265,30.948620 50.014660,31.052967 
	C50.080055,31.157314 50.342224,31.357145 50.342224,31.357145 
	C50.342224,31.357145 50.653770,31.233175 50.780834,31.157623 
	C50.907898,31.082071 51.156719,30.922373 51.448414,30.949244 
	C52.133221,30.975016 52.526333,30.973919 53.022774,31.287811 
	C54.104015,32.052036 55.081924,32.501266 56.452484,32.971748 
	C57.895653,32.970123 58.946175,32.947247 60.195805,33.191292 
	C61.992989,33.083332 63.591064,32.708443 65.453094,32.549011 
	C67.099777,32.830830 68.482491,32.897194 69.978851,33.361843 
	C70.600777,34.132092 71.103867,34.819599 71.618111,34.828045 
	C77.941467,34.931896 84.267807,35.004971 90.589325,34.880531 
	C91.385902,34.864849 92.159386,33.675369 92.999352,33.008255 
	C93.055138,32.986774 93.165466,32.940731 93.567673,32.959877 
	C95.344421,32.980202 96.718964,32.981380 98.508545,32.978279 
	C100.027481,32.931740 101.131378,32.889481 102.627411,32.860703 
	C104.584999,32.869007 106.150459,32.863827 107.947411,32.881676 
	C108.506943,32.867409 108.769875,32.716595 109.284073,32.314186 
	C110.058281,32.184006 110.516113,32.191902 111.159248,32.412140 
	C111.677856,32.787724 112.011162,32.950962 112.398621,33.415176 
	C113.286201,33.505951 114.119629,33.295757 114.972900,32.770451 
	C115.003395,32.034504 115.014061,31.613668 115.256760,31.121124 
	C115.488808,31.049416 115.954948,30.912851 116.211754,30.900673 
	C116.721237,30.669287 116.973915,30.450079 117.582291,30.262230 
	C118.401436,30.204292 118.864883,30.114992 119.597816,29.835617 
	C122.269279,28.397188 124.671265,27.148836 127.073242,25.900482 
	C126.380409,30.318001 125.687569,34.735519 124.800751,39.667236 
	C124.323967,40.183010 124.057625,40.250004 123.498001,40.479805 
	C122.767853,41.053719 122.347450,41.530235 121.589088,42.044838 
	C120.215958,43.043976 119.180779,44.005024 117.835907,44.985722 
	C117.319649,45.017006 117.113091,45.028641 116.555344,44.973015 
	C115.491531,44.953495 114.778923,45.001236 113.769104,45.115387 
	C113.194748,45.474087 112.917580,45.766380 112.371323,46.109741 
	C112.399452,46.766510 112.696671,47.372211 112.997536,48.315357 
	C113.001007,49.102791 113.000832,49.552776 112.664459,49.987499 
	C110.229393,49.652653 108.130516,49.333073 105.732521,48.897881 
	C103.956329,48.876945 102.479263,48.971622 100.957977,49.030235 
	C100.913765,48.994171 100.883461,48.884155 100.740143,48.556889 
	C99.089493,48.478676 97.582169,48.727726 95.682648,48.982124 
	C94.504173,48.999928 93.717903,49.012386 92.501457,49.012550 
	C85.380241,48.999603 78.689209,48.998947 71.674652,49.040199 
	C70.903244,49.733776 70.455360,50.385448 69.756523,51.026630 
	C69.338165,51.012005 69.170761,51.007870 68.961594,50.678337 
	C68.262703,49.906883 67.605576,49.460831 66.546539,49.010445 
	C65.072983,48.985954 64.001350,48.965794 62.792686,48.599907 
	C60.190559,47.748848 57.725464,47.243515 55.106750,46.528099 
	C54.630013,46.194736 54.306892,46.071457 53.613342,45.868706 
	C51.525925,45.366295 49.808937,44.943356 47.844761,44.353531 
	C47.232552,44.465446 46.867527,44.744244 46.227081,44.984150 
	C45.305939,44.586311 44.660221,44.227367 43.979656,43.567520 
	C41.562931,40.789669 39.181053,38.312721 36.799175,35.835777 
M116.482620,33.582787 
	C116.482620,33.582787 116.419449,33.474041 116.482620,33.582787 
z"/>
<path fill="#BAD9E5" opacity="1.000000" stroke="none" 
	d="
M46.451107,29.976269 
	C46.451107,29.976269 46.514194,29.973417 46.369919,29.720135 
	C46.157524,29.262529 46.089401,29.058207 45.981403,28.502850 
	C44.627766,26.436798 43.314007,24.721783 42.240936,22.932419 
	C42.976421,22.409559 43.471210,21.961046 44.288841,21.385418 
	C45.088196,20.835188 45.564705,20.412073 46.015274,19.987751 
	C45.989334,19.986542 45.989491,20.038483 46.323242,20.094776 
	C47.412159,19.798710 48.167324,19.446352 49.141624,18.811359 
	C51.216660,18.050476 53.072552,17.572229 55.130405,16.992729 
	C55.601299,16.732826 55.792191,16.507967 56.202629,16.265503 
	C57.342396,16.480738 58.184570,16.647364 59.430054,16.867653 
	C61.188511,16.908113 62.543652,16.894909 64.291054,16.947153 
	C66.365311,16.721373 68.047295,16.430145 70.081451,15.998758 
	C78.633163,15.554698 86.832695,15.250799 95.032234,14.946901 
	C96.167252,14.958748 97.302261,14.970594 99.053741,14.903622 
	C99.670204,14.824802 100.006401,15.027078 100.171494,15.270507 
	C100.888260,15.675264 101.439949,15.836594 102.070709,16.322126 
	C103.798149,16.503197 105.446503,16.360064 107.208107,16.409868 
	C107.532753,16.823849 107.781898,16.987442 108.134544,17.459801 
	C110.625633,18.520599 113.050964,19.215187 115.817474,19.924580 
	C116.662926,22.163649 124.353165,21.035048 118.621811,26.042217 
	C116.837662,27.370527 115.417633,28.655502 113.790665,30.057306 
	C113.583725,30.174135 113.122070,30.287054 112.999374,29.972828 
	C111.817169,28.406687 110.733475,26.885088 109.840286,30.027784 
	C109.349594,30.337208 109.136086,30.582405 109.023277,30.901873 
	C109.063957,30.923904 109.061310,31.016390 108.757912,30.963381 
	C106.227303,29.200768 104.654724,30.820536 102.753189,32.039726 
	C102.513885,32.095112 102.029625,32.012466 101.747353,31.848343 
	C100.214188,31.093239 98.746056,28.488274 97.569748,32.046326 
	C95.851753,32.332706 94.508606,32.636719 93.165466,32.940731 
	C93.165466,32.940731 93.055138,32.986774 92.620903,32.973122 
	C84.834229,32.648384 77.481796,32.337299 69.810928,32.005913 
	C69.280518,31.967800 69.068542,31.949989 68.732819,31.596193 
	C67.419441,31.185335 66.229836,31.110462 64.720322,30.859119 
	C63.224480,30.510841 62.048538,30.339037 60.469223,30.108810 
	C58.704182,29.975441 57.342510,29.900490 55.872375,29.602654 
	C55.501221,29.133560 55.193394,29.046026 54.478642,29.078030 
	C53.074966,29.367029 52.033070,29.695164 51.027630,30.248974 
	C51.064083,30.474651 51.156719,30.922373 51.156719,30.922373 
	C51.156719,30.922373 50.907898,31.082071 50.588097,31.128000 
	C50.268295,31.173929 49.949265,30.948620 49.949265,30.948620 
	C49.949265,30.948620 50.019299,30.971300 49.768295,30.718782 
	C48.495232,30.302933 47.473171,30.139601 46.451107,29.976269 
z"/>
<path fill="#ED9AB8" opacity="1.000000" stroke="none" 
	d="
M146.902161,141.950851 
	C148.847534,135.205231 153.863159,131.658478 160.269775,130.478836 
	C165.940125,129.434784 169.606964,133.512497 172.795731,137.490326 
	C176.346069,141.919235 175.697357,146.659515 172.722748,151.839127 
	C169.226120,154.266205 166.110733,156.191879 162.607178,158.082489 
	C158.105820,156.604706 153.992615,155.161987 149.852737,153.412140 
	C147.953964,149.622223 145.053711,146.408936 146.902161,141.950851 
z"/>
<path fill="#8BCDE1" opacity="1.000000" stroke="none" 
	d="
M149.879425,153.719254 
	C153.992615,155.161987 158.105820,156.604706 162.623871,158.446838 
	C166.710571,164.514191 167.264084,170.177475 163.003357,175.833557 
	C156.155273,182.714874 148.787750,182.774170 141.510712,176.040329 
	C141.048660,175.612778 140.384293,175.403839 139.448730,174.682632 
	C138.645264,171.479507 138.207123,168.686920 137.928543,165.615341 
	C140.009705,162.446152 141.636642,159.283646 143.962448,156.767014 
	C145.377380,155.235962 147.870575,154.701416 149.879425,153.719254 
z"/>
<path fill="#F5D068" opacity="1.000000" stroke="none" 
	d="
M163.300507,175.992538 
	C167.264084,170.177475 166.710571,164.514191 163.012024,158.481903 
	C166.110733,156.191879 169.226120,154.266205 172.651154,152.226379 
	C176.253143,153.523224 179.861298,154.472672 182.761261,156.457077 
	C186.773300,159.202469 188.307602,163.587158 186.819412,168.288284 
	C185.108841,173.691849 181.508911,177.564728 175.752747,179.007950 
	C171.204971,180.148193 167.277267,178.686737 163.300507,175.992538 
z"/>
<path fill="#C6E0ED" opacity="1.000000" stroke="none" 
	d="
M38.912926,160.005844 
	C36.703724,156.960312 34.494522,153.914764 32.408150,150.256638 
	C32.357128,129.689926 32.183289,109.735809 32.009449,89.781693 
	C32.009449,89.781693 31.961315,89.405609 32.260986,88.944344 
	C32.380421,85.659584 32.200180,82.836098 32.019943,80.012604 
	C32.000992,76.990829 31.982037,73.969055 31.978916,70.039993 
	C31.991936,66.406334 31.989124,63.679955 31.986315,60.953575 
	C31.955976,60.267391 31.925638,59.581207 32.128845,58.352058 
	C32.549831,57.141258 32.737274,56.473423 32.924717,55.805592 
	C32.924717,55.805592 32.876614,55.497059 33.132957,55.140453 
	C34.920345,51.501701 36.451393,48.219555 37.982441,44.937405 
	C38.239815,44.477379 38.497196,44.017353 39.120094,43.512405 
	C39.353138,45.656689 39.220665,47.845905 39.062489,50.047840 
	C39.036789,50.060562 38.979580,50.064537 38.757355,50.157135 
	C38.261509,50.446915 38.085342,50.709507 37.888641,51.318840 
	C37.543087,52.365005 37.315521,53.129829 36.809319,54.117702 
	C36.030567,55.920658 35.530449,57.500568 34.936550,59.298058 
	C34.929482,60.017357 35.016193,60.519073 35.060814,61.484413 
	C35.017586,67.296761 35.016445,72.645477 34.711639,78.283371 
	C34.293095,94.160942 34.168213,109.749298 34.104225,125.337906 
	C34.101948,125.893280 34.702030,126.451134 34.978352,127.474266 
	C34.933113,133.537659 34.809174,139.138992 35.009411,144.728683 
	C35.063290,146.232712 36.102646,147.701416 36.786678,149.630676 
	C36.939560,150.373032 36.995392,150.671051 36.799377,151.156982 
	C37.384403,152.222031 38.221275,153.099152 39.367104,154.114105 
	C42.791092,156.147583 45.906120,158.043198 49.077095,160.113739 
	C49.411396,160.252625 49.689747,160.216614 50.276962,160.213715 
	C53.354088,160.810150 56.122345,161.373474 59.107605,162.200653 
	C60.533432,162.368164 61.742256,162.271835 63.304359,162.137375 
	C64.783234,162.440384 65.908836,162.781525 67.183304,163.327744 
	C67.883286,163.378586 68.434395,163.224350 69.397644,163.091064 
	C73.876602,163.072845 77.943428,163.033646 82.348755,163.112915 
	C86.804588,163.202225 90.921936,163.173096 95.233879,163.369995 
	C96.296387,163.408371 97.164291,163.220734 98.398575,163.024872 
	C99.497681,163.002151 100.230423,162.987640 101.321762,162.987976 
	C102.772339,162.721939 103.864311,162.441086 105.322784,162.077637 
	C108.081955,160.986511 110.474609,159.978012 113.224548,158.973297 
	C114.056702,159.002777 114.531570,159.028473 115.094604,159.311859 
	C115.077782,160.376205 114.972786,161.182831 114.593216,162.012527 
	C113.881973,162.331726 113.445312,162.627869 112.667023,163.101349 
	C101.065170,166.596802 89.503700,167.042297 77.886108,166.785873 
	C74.919975,166.720383 71.962830,166.248184 68.853897,165.741791 
	C68.138573,165.672882 67.570915,165.825058 66.676788,165.987122 
	C64.559425,165.633347 62.768517,165.269638 60.827339,164.694702 
	C60.119297,164.646606 59.561523,164.809738 58.634857,164.948853 
	C56.836601,164.585190 55.407238,164.245544 53.831146,163.696411 
	C53.126869,163.628510 52.569321,163.770126 51.637245,163.895844 
	C47.146122,162.588593 43.029526,161.297211 38.912926,160.005844 
z"/>
<path fill="#F5D068" opacity="1.000000" stroke="none" 
	d="
M149.852737,153.412140 
	C147.870575,154.701416 145.377380,155.235962 143.962448,156.767014 
	C141.636642,159.283646 140.009705,162.446152 137.559372,165.643677 
	C129.479507,165.544037 126.760704,159.828522 124.338326,153.863312 
	C125.466980,150.074615 126.292000,146.543518 127.469025,143.003067 
	C129.283478,141.970734 130.745911,140.947739 132.208344,139.924728 
	C136.939774,140.089691 141.920288,138.482147 146.549072,141.920593 
	C145.053711,146.408936 147.953964,149.622223 149.852737,153.412140 
z"/>
<path fill="#EC99B8" opacity="1.000000" stroke="none" 
	d="
M124.034691,154.120911 
	C126.760704,159.828522 129.479507,165.544037 137.399811,165.922699 
	C138.207123,168.686920 138.645264,171.479507 139.102539,174.671814 
	C130.124283,182.718414 123.363197,183.013260 116.255547,175.577301 
	C114.596962,173.842117 114.131638,170.966354 113.149895,168.018951 
	C113.467041,165.926987 113.751595,164.431427 114.243195,162.846985 
	C114.717697,162.571640 114.856880,162.315430 114.867783,161.989471 
	C114.972786,161.182831 115.077782,160.376205 115.452774,159.265747 
	C118.493401,157.348267 121.264046,155.734589 124.034691,154.120911 
z"/>
<path fill="#9ECDE0" opacity="1.000000" stroke="none" 
	d="
M114.036156,162.935867 
	C113.751595,164.431427 113.467041,165.926987 113.009644,167.774597 
	C104.900192,169.382111 97.003792,171.172256 89.017921,171.772781 
	C75.701614,172.774170 62.394226,171.939621 49.548950,167.943497 
	C45.493782,166.681931 40.621693,165.902725 38.973343,160.369308 
	C43.029526,161.297211 47.146122,162.588593 51.855537,164.001526 
	C52.958195,164.050705 53.468037,163.978317 53.977879,163.905914 
	C55.407238,164.245544 56.836601,164.585190 58.859383,165.035339 
	C59.961071,165.065887 60.469341,164.985916 60.977608,164.905945 
	C62.768517,165.269638 64.559425,165.633347 67.009789,165.987259 
	C68.113350,165.972595 68.557449,165.967728 69.001549,165.962860 
	C71.962830,166.248184 74.919975,166.720383 77.886108,166.785873 
	C89.503700,167.042297 101.065170,166.596802 112.923691,163.110764 
	C113.693375,162.940521 113.864761,162.938202 114.036156,162.935867 
z"/>
<path fill="#BDD5E6" opacity="1.000000" stroke="none" 
	d="
M132.154282,139.466797 
	C130.745911,140.947739 129.283478,141.970734 127.327423,142.712692 
	C126.551529,141.633286 126.269249,140.834915 126.369400,139.881897 
	C127.164345,138.068344 127.921898,136.412033 127.934425,134.750107 
	C128.028961,122.203957 127.977135,109.656700 127.981049,96.634354 
	C128.004395,86.091896 128.017715,76.024895 128.032455,65.546013 
	C128.021545,63.757145 128.009216,62.380154 128.312927,60.972916 
	C129.425598,60.295315 130.222229,59.647957 131.018845,59.000595 
	C131.671967,62.293743 132.862320,65.585548 132.870544,68.880302 
	C132.889877,76.625458 132.344467,84.372032 131.612915,92.791328 
	C131.103149,103.440796 130.992737,113.416916 130.957428,123.393295 
	C130.955627,123.901474 131.599945,124.411949 131.943420,124.921356 
	C131.995697,129.617203 132.047958,134.313034 132.154282,139.466797 
z"/>
<path fill="#7C7EAC" opacity="1.000000" stroke="none" 
	d="
M31.641148,90.035873 
	C32.183289,109.735809 32.357128,129.689926 32.230103,149.966797 
	C31.619946,149.545547 31.039415,148.800980 31.040976,148.057602 
	C31.081385,128.801682 31.182352,109.545883 31.641148,90.035873 
z"/>
<path fill="#DBECF4" opacity="1.000000" stroke="none" 
	d="
M94.845123,14.627260 
	C86.832695,15.250799 78.633163,15.554698 69.798431,15.969505 
	C68.775352,15.707559 68.387459,15.334704 67.999573,14.961850 
	C67.999573,14.961850 68.010483,15.003132 68.170822,14.912392 
	C68.575340,14.670156 68.721558,14.452804 68.769791,14.169594 
	C75.098129,13.444902 81.413208,12.456258 87.761932,12.137071 
	C90.018547,12.023617 92.356949,13.536921 94.845123,14.627260 
z"/>
<path fill="#5F5D9A" opacity="1.000000" stroke="none" 
	d="
M123.807732,40.382412 
	C124.057625,40.250004 124.323967,40.183010 124.795547,40.095486 
	C126.087334,39.475533 127.190338,38.941532 128.279816,38.414082 
	C128.199448,38.679264 127.985916,39.383888 127.510307,40.576244 
	C127.297653,41.601269 127.347076,42.138565 127.396500,42.675861 
	C128.090057,42.534718 128.783615,42.393570 129.477188,42.252426 
	C130.127487,42.216450 130.777786,42.180470 131.433929,42.143494 
	C131.992172,44.981606 126.694046,45.916683 128.665924,49.392475 
	C127.939552,49.333199 127.619682,49.289680 127.180923,49.033257 
	C126.618187,49.644028 126.166756,50.523434 125.614105,51.446545 
	C125.512894,51.490246 125.370186,51.661263 125.274963,51.668915 
	C125.179741,51.676571 125.162888,51.866894 125.098740,51.529793 
	C123.684998,50.023163 122.335411,48.853638 121.177795,47.431221 
	C122.237694,46.293224 123.105606,45.408112 124.031746,44.227573 
	C124.041534,43.340382 123.993088,42.748619 123.926147,41.712032 
	C123.874329,40.972275 123.841026,40.677345 123.807732,40.382412 
z"/>
<path fill="#D8E8F2" opacity="1.000000" stroke="none" 
	d="
M118.985924,25.998884 
	C124.353165,21.035048 116.662926,22.163649 115.909691,19.612171 
	C116.467979,18.923035 117.275223,18.561113 118.082466,18.199194 
	C122.136940,19.168146 126.321831,19.968418 127.087448,25.536573 
	C124.671265,27.148836 122.269279,28.397188 119.446030,29.506117 
	C118.352615,29.200560 117.680473,29.034424 117.202179,28.630035 
	C117.925995,27.594152 118.455963,26.796518 118.985924,25.998884 
z"/>
<path fill="#D6E6F1" opacity="1.000000" stroke="none" 
	d="
M42.000244,23.006765 
	C43.314007,24.721783 44.627766,26.436798 45.639862,28.500137 
	C44.662174,28.945478 43.986160,29.042501 43.310143,29.139523 
	C41.418705,27.859915 39.527267,26.580309 37.320347,25.152803 
	C37.022671,21.832985 38.240398,19.668835 41.972771,19.181097 
	C42.232250,18.963482 42.343571,18.970530 42.500290,19.283932 
	C42.438087,20.733810 42.219166,21.870287 42.000244,23.006765 
z"/>
<path fill="#C1DAE9" opacity="1.000000" stroke="none" 
	d="
M39.088188,50.035118 
	C39.220665,47.845905 39.353138,45.656689 39.178276,43.255184 
	C38.054211,40.809658 37.237480,38.576427 36.609962,36.089485 
	C39.181053,38.312721 41.562931,40.789669 43.637238,43.663895 
	C42.908161,45.054630 42.486652,46.048096 41.928345,47.338791 
	C40.890427,48.435722 39.989307,49.235420 39.088188,50.035118 
z"/>
<path fill="#665E9B" opacity="1.000000" stroke="none" 
	d="
M131.962769,124.458313 
	C131.599945,124.411949 130.955627,123.901474 130.957428,123.393295 
	C130.992737,113.416916 131.103149,103.440796 131.577469,93.262589 
	C131.965149,103.372124 131.973618,113.683693 131.962769,124.458313 
z"/>
<path fill="#BDD5E6" opacity="1.000000" stroke="none" 
	d="
M125.715324,51.402843 
	C126.166756,50.523434 126.618187,49.644028 127.181610,49.377647 
	C127.823456,50.319370 128.353317,50.648071 128.883163,50.976772 
	C129.248962,52.364426 129.614746,53.752083 129.960663,55.829109 
	C128.935532,56.651733 127.930260,56.784985 126.955505,56.681847 
	C126.986031,56.445457 126.999527,55.967720 126.953850,55.581585 
	C126.510559,53.931248 126.112946,52.667046 125.715324,51.402843 
z"/>
<path fill="#ABB6D0" opacity="1.000000" stroke="none" 
	d="
M118.091949,17.832417 
	C117.275223,18.561113 116.467979,18.923035 115.568520,19.597364 
	C113.050964,19.215187 110.625633,18.520599 108.389824,17.424505 
	C108.986290,16.759058 109.393219,16.495117 110.170349,16.156796 
	C111.042542,16.044184 111.544548,16.005953 112.046555,15.967722 
	C112.046555,15.967721 111.996765,15.997579 112.206573,16.306797 
	C113.460106,16.731661 114.503830,16.847305 115.547546,16.962952 
	C116.398842,17.130516 117.250137,17.298079 118.091949,17.832417 
z"/>
<path fill="#7878AA" opacity="1.000000" stroke="none" 
	d="
M59.026741,16.813988 
	C58.184570,16.647364 57.342396,16.480738 55.866665,16.226662 
	C54.557198,16.169729 53.881287,16.200243 52.754906,16.272392 
	C50.412552,16.430246 48.520676,16.546467 46.628796,16.662689 
	C50.494377,15.769730 54.359959,14.876769 58.595772,14.251965 
	C58.966003,14.520122 59.033443,14.947025 58.860817,15.095884 
	C58.833431,15.587587 58.978680,15.930431 59.147217,16.417007 
	C59.170513,16.560740 59.026741,16.813988 59.026741,16.813988 
z"/>
<path fill="#C1DAE9" opacity="1.000000" stroke="none" 
	d="
M37.629486,44.984547 
	C36.451393,48.219555 34.920345,51.501701 33.084198,54.992134 
	C34.278240,51.810844 35.777386,48.421265 37.629486,44.984547 
z"/>
<path fill="#C1DAE9" opacity="1.000000" stroke="none" 
	d="
M31.596552,61.040157 
	C31.989124,63.679955 31.991936,66.406334 31.990944,69.588394 
	C28.293514,67.372093 29.617184,64.261055 31.596552,61.040157 
z"/>
<path fill="#7878AA" opacity="1.000000" stroke="none" 
	d="
M111.839523,15.646875 
	C111.544548,16.005953 111.042542,16.044184 109.832344,16.134041 
	C108.447723,16.196089 107.771294,16.206511 107.094864,16.216932 
	C105.446503,16.360064 103.798149,16.503197 102.344749,16.271284 
	C103.018410,15.584295 103.497108,15.272353 104.012596,14.741114 
	C104.049393,14.521818 103.955757,14.087069 103.955757,14.087069 
	C106.514671,14.500055 109.073578,14.913043 111.839523,15.646875 
z"/>
<path fill="#B7CEE1" opacity="1.000000" stroke="none" 
	d="
M126.924988,56.918236 
	C127.930260,56.784985 128.935532,56.651733 129.990662,56.198318 
	C130.552673,56.792171 131.064835,57.706196 131.297913,58.810410 
	C130.222229,59.647957 129.425598,60.295315 128.262970,60.662834 
	C127.572975,59.228073 127.248978,58.073154 126.924988,56.918236 
z"/>
<path fill="#AEB4CF" opacity="1.000000" stroke="none" 
	d="
M46.416744,16.635315 
	C48.520676,16.546467 50.412552,16.430246 52.889343,16.487999 
	C53.958988,16.805977 54.443714,16.949980 54.928444,17.093983 
	C53.072552,17.572229 51.216660,18.050476 48.864063,18.724483 
	C48.182434,18.861523 47.997505,18.802797 47.628647,18.548769 
	C46.735664,18.372295 46.026611,18.391123 45.177589,18.027279 
	C44.986202,17.377871 44.934788,17.111135 44.883377,16.844398 
	C45.323814,16.765579 45.764256,16.686758 46.416744,16.635315 
z"/>
<path fill="#C1DAE9" opacity="1.000000" stroke="none" 
	d="
M32.000603,80.461311 
	C32.200180,82.836098 32.380421,85.659584 32.265625,88.754822 
	C31.974150,86.321045 31.977703,83.615532 32.000603,80.461311 
z"/>
<path fill="#B5C2D8" opacity="1.000000" stroke="none" 
	d="
M44.542820,16.958754 
	C44.934788,17.111135 44.986202,17.377871 45.253738,18.183201 
	C45.659752,18.861591 45.863785,18.976240 46.024284,19.305641 
	C45.966614,19.545542 45.989491,20.038483 45.989491,20.038483 
	C45.989491,20.038483 45.989334,19.986542 45.635681,19.984200 
	C44.843349,20.492081 44.404678,21.002306 43.966003,21.512531 
	C43.471210,21.961046 42.976421,22.409559 42.240936,22.932419 
	C42.219166,21.870287 42.438087,20.733810 42.714306,19.148350 
	C43.066708,18.460436 43.135159,18.168903 42.976959,17.824772 
	C43.385395,17.574219 43.793827,17.323664 44.542820,16.958754 
z"/>
<path fill="#A7ACC9" opacity="1.000000" stroke="none" 
	d="
M63.172634,13.900632 
	C64.388306,14.005260 65.603973,14.109889 66.718765,14.651865 
	C65.697693,15.448384 64.777504,15.807556 63.862305,16.092834 
	C63.867290,16.018942 64.001152,15.955534 63.872849,15.735090 
	C63.466423,15.317855 63.188305,15.121063 62.977089,14.668693 
	C63.086876,14.242287 63.129753,14.071459 63.172634,13.900632 
z"/>
<path fill="#7B87B2" opacity="1.000000" stroke="none" 
	d="
M63.857319,16.166729 
	C64.777504,15.807556 65.697693,15.448384 66.930168,14.875565 
	C67.242455,14.661916 67.640877,14.761847 67.820221,14.861849 
	C68.387459,15.334704 68.775352,15.707559 69.446259,16.109667 
	C68.047295,16.430145 66.365311,16.721373 64.319595,16.766186 
	C63.955868,16.519773 63.857319,16.166729 63.857319,16.166729 
z"/>
<path fill="#F4F4F7" opacity="1.000000" stroke="none" 
	d="
M143.957825,35.220955 
	C143.445435,36.029896 142.958115,36.542110 142.470795,37.054321 
	C142.275848,36.918888 142.080917,36.783451 141.885971,36.648014 
	C142.374969,35.764240 142.858231,34.877129 143.365372,34.003887 
	C143.400787,33.942902 143.714935,33.948906 143.727432,33.984371 
	C143.835037,34.289749 143.903061,34.609074 143.957825,35.220955 
z"/>
<path fill="#2F257F" opacity="1.000000" stroke="none" 
	d="
M103.592255,14.040215 
	C103.955757,14.087069 104.049393,14.521818 103.615608,14.765199 
	C102.123352,15.014746 101.064873,15.020911 100.006401,15.027078 
	C100.006401,15.027078 99.670204,14.824802 99.479324,14.870286 
	C100.601883,14.608300 101.915314,14.300831 103.592255,14.040215 
z"/>
<path fill="#C1DAE9" opacity="1.000000" stroke="none" 
	d="
M37.653214,31.922390 
	C37.762619,32.480827 37.582607,33.119610 37.116463,33.947876 
	C37.008152,33.425819 37.185974,32.714275 37.653214,31.922390 
z"/>
<path fill="#291F79" opacity="1.000000" stroke="none" 
	d="
M62.758224,13.920669 
	C63.129753,14.071459 63.086876,14.242287 62.589172,14.661707 
	C61.100716,14.922543 60.067078,14.934784 59.033443,14.947025 
	C59.033443,14.947025 58.966003,14.520122 59.009151,14.308388 
	C60.149471,14.044670 61.246639,13.992688 62.758224,13.920669 
z"/>
<path fill="#F4F4F7" opacity="1.000000" stroke="none" 
	d="
M137.038589,40.283508 
	C137.850830,40.105076 138.462051,40.105076 139.073288,40.105076 
	C139.062256,40.328758 139.051239,40.552437 139.040207,40.776119 
	C138.306000,40.671391 137.571777,40.566666 137.038589,40.283508 
z"/>
<path fill="#F4F4F7" opacity="1.000000" stroke="none" 
	d="
M130.477188,34.589397 
	C130.420013,35.061810 130.185577,35.349491 129.951126,35.637169 
	C129.769791,35.447392 129.588440,35.257614 129.407089,35.067844 
	C129.704697,34.846786 130.002304,34.625725 130.477188,34.589397 
z"/>
<path fill="#7878AA" opacity="1.000000" stroke="none" 
	d="
M115.362457,16.596886 
	C114.503830,16.847305 113.460106,16.731661 112.206879,16.277769 
	C113.057365,16.036623 114.117363,16.133722 115.362457,16.596886 
z"/>
<path fill="#F4F4F7" opacity="1.000000" stroke="none" 
	d="
M129.135742,42.063301 
	C128.783615,42.393570 128.090057,42.534718 127.396500,42.675861 
	C127.347076,42.138565 127.297653,41.601269 127.535049,40.870499 
	C128.146011,41.076077 128.470169,41.475124 129.135742,42.063301 
z"/>
<path fill="#C1DAE9" opacity="1.000000" stroke="none" 
	d="
M32.665993,55.920654 
	C32.737274,56.473423 32.549831,57.141258 32.066010,58.014305 
	C31.982180,57.491585 32.194725,56.763649 32.665993,55.920654 
z"/>
<path fill="#F4F4F7" opacity="1.000000" stroke="none" 
	d="
M140.629395,29.761383 
	C140.480591,30.216343 140.191101,30.494221 139.880539,30.746113 
	C139.864838,30.758848 139.667267,30.547333 139.554382,30.440224 
	C139.864410,30.153154 140.174423,29.866091 140.629395,29.761383 
z"/>
<path fill="#F4F4F7" opacity="1.000000" stroke="none" 
	d="
M134.669006,41.694485 
	C134.655060,41.989159 134.497742,42.151157 134.340424,42.313160 
	C134.402161,42.062710 134.463898,41.812260 134.669006,41.694485 
z"/>
<path fill="#D8E9F3" opacity="1.000000" stroke="none" 
	d="
M42.778412,17.877247 
	C43.135159,18.168903 43.066708,18.460436 42.557587,18.834949 
	C42.343571,18.970530 42.232250,18.963482 42.175674,18.958969 
	C42.272686,18.612879 42.426273,18.271299 42.778412,17.877247 
z"/>
<path fill="#B7CEE1" opacity="1.000000" stroke="none" 
	d="
M128.891586,50.634003 
	C128.353317,50.648071 127.823456,50.319370 127.292908,49.646278 
	C127.619682,49.289680 127.939552,49.333199 128.466629,49.536842 
	C128.754303,49.857906 128.827148,50.074566 128.891586,50.634003 
z"/>
<path fill="#A7ACC9" opacity="1.000000" stroke="none" 
	d="
M68.575958,14.246359 
	C68.721558,14.452804 68.575340,14.670156 68.149490,14.913225 
	C67.957840,14.687348 68.095940,14.460123 68.575958,14.246359 
z"/>
<path fill="#F4F4F7" opacity="1.000000" stroke="none" 
	d="
M135.427887,30.553604 
	C135.372421,30.473606 135.590149,30.445927 135.590149,30.445927 
	C135.590149,30.445927 135.483353,30.633604 135.427887,30.553604 
z"/>
<path fill="#F4F4F7" opacity="1.000000" stroke="none" 
	d="
M141.559265,32.463852 
	C141.596954,32.523891 141.521576,32.403809 141.559265,32.463852 
z"/>
<path fill="#DBECF5" opacity="1.000000" stroke="none" 
	d="
M39.062489,50.047840 
	C39.989307,49.235420 40.890427,48.435722 42.281433,47.323051 
	C43.481106,47.015850 44.190887,47.021626 45.204105,47.153915 
	C46.334499,47.548954 47.161457,47.817471 48.356422,48.152905 
	C49.457031,48.164452 50.189632,48.109081 50.949982,48.042709 
	C50.977730,48.031712 50.941566,47.984314 51.115437,48.356255 
	C52.378147,48.832527 53.466991,48.936855 54.538956,48.999306 
	C54.522076,48.957436 54.433907,48.976902 54.693100,49.272461 
	C55.967369,49.721088 56.982441,49.874161 58.254864,50.236961 
	C59.366756,50.583359 60.221302,50.720020 61.457733,50.923668 
	C62.617706,51.007740 63.395798,51.024826 64.440765,51.262169 
	C67.858459,53.721252 69.264145,53.603146 70.007484,51.037125 
	C70.455360,50.385448 70.903244,49.733776 71.701775,49.360748 
	C76.632347,56.060238 82.834282,54.414330 89.426285,53.042027 
	C93.174126,52.331596 97.972893,55.123413 99.325966,49.071144 
	C100.050560,48.968330 100.467010,48.926243 100.883461,48.884155 
	C100.883461,48.884155 100.913765,48.994171 100.969238,49.354259 
	C101.679192,50.156410 102.333687,50.598473 103.316498,51.051216 
	C104.393608,50.765701 105.142395,50.469505 105.933762,49.884262 
	C105.994781,49.401302 106.013214,49.207394 106.031647,49.013489 
	C108.130516,49.333073 110.229393,49.652653 113.037109,49.990967 
	C118.172058,51.273636 115.006493,53.545506 114.225052,55.116096 
	C111.944016,59.700699 112.496582,61.877831 117.028534,64.192398 
	C117.199417,64.371468 117.297836,64.414436 117.396263,64.457405 
	C117.282745,64.290260 117.169220,64.123123 117.000046,63.570652 
	C114.598831,58.672688 117.106209,54.928482 119.375961,51.528496 
	C119.918526,50.715755 123.161766,51.705933 125.162888,51.866894 
	C125.162888,51.866894 125.179741,51.676571 125.062828,51.946789 
	C124.623444,53.159763 124.300972,54.102524 123.923607,55.388824 
	C122.182915,58.176018 120.497116,60.619667 118.811310,63.063316 
	C119.156715,63.334789 119.502121,63.606262 119.847527,63.877735 
	C121.586769,62.654232 123.326012,61.430729 124.779076,60.408539 
	C125.989532,62.474133 127.010284,64.216011 128.031036,65.957886 
	C128.017715,76.024895 128.004395,86.091896 127.587036,96.807686 
	C127.115326,102.848137 127.143852,108.243446 126.940491,113.629997 
	C126.834557,116.435898 126.319786,119.226357 125.686890,121.861435 
	C122.992081,119.795586 120.600052,117.892082 118.141106,115.620270 
	C116.951942,106.966766 105.890839,102.523468 97.888107,107.578674 
	C97.452637,105.631660 97.152023,104.032196 96.992218,102.418793 
	C96.551712,97.971405 90.620529,92.134521 86.926643,92.569214 
	C78.198975,93.596275 73.393112,98.173599 71.434212,106.945503 
	C65.062340,106.289505 60.256866,107.753204 57.558365,113.892776 
	C50.560623,112.177299 43.993366,111.300621 37.736450,115.732605 
	C37.288525,110.338310 37.226757,105.232170 36.973888,100.135513 
	C36.789856,96.426399 36.353474,92.729820 36.023735,88.571129 
	C36.020699,85.068176 36.023529,82.021751 36.318672,78.682175 
	C36.736168,73.415451 36.949383,68.441002 36.899307,63.469196 
	C36.891026,62.647114 35.730785,61.836636 35.102905,61.020794 
	C35.016193,60.519073 34.929482,60.017357 35.281502,59.241776 
	C36.176136,57.276833 36.632046,55.585743 37.087952,53.894657 
	C37.315521,53.129829 37.543087,52.365005 38.111416,51.222549 
	C38.751450,50.668224 38.927254,50.408100 38.979580,50.064537 
	C38.979580,50.064537 39.036789,50.060562 39.062489,50.047840 
z"/>
<path fill="#E2F4FA" opacity="1.000000" stroke="none" 
	d="
M88.980957,53.043270 
	C82.834282,54.414330 76.632347,56.060238 72.025299,49.318840 
	C78.689209,48.998947 85.380241,48.999603 92.634232,49.257038 
	C93.210922,50.191597 93.459557,51.337696 93.198929,51.468414 
	C91.865166,52.137367 90.400108,52.544563 88.980957,53.043270 
z"/>
<path fill="#99A3C3" opacity="1.000000" stroke="none" 
	d="
M70.129356,32.026211 
	C77.481796,32.337299 84.834229,32.648384 92.565117,32.994606 
	C92.159386,33.675369 91.385902,34.864849 90.589325,34.880531 
	C84.267807,35.004971 77.941467,34.931896 71.618111,34.828045 
	C71.103867,34.819599 70.600777,34.132092 70.059402,33.131531 
	C70.026299,32.502937 70.129356,32.026211 70.129356,32.026211 
z"/>
<path fill="#D1E1ED" opacity="1.000000" stroke="none" 
	d="
M125.098740,51.529793 
	C123.161766,51.705933 119.918526,50.715755 119.375961,51.528496 
	C117.106209,54.928482 114.598831,58.672688 116.973480,63.594078 
	C117.002563,64.002838 116.956070,64.056290 116.956070,64.056290 
	C112.496582,61.877831 111.944016,59.700699 114.225052,55.116096 
	C115.006493,53.545506 118.172058,51.273636 113.373306,50.006233 
	C113.000832,49.552776 113.001007,49.102791 112.997993,48.077911 
	C112.994804,47.503025 112.988297,47.027641 113.283279,47.035751 
	C113.774956,47.044441 113.971642,47.045021 114.519012,47.041519 
	C115.337563,47.071728 115.805412,47.106014 116.218750,47.342094 
	C116.258675,47.781860 116.353111,48.019829 116.447548,48.257797 
	C116.547813,47.906605 116.648071,47.555408 116.822350,47.140488 
	C116.896362,47.076763 117.040215,46.944607 117.310341,47.008949 
	C117.757278,47.128162 117.934082,47.183025 118.303772,47.454468 
	C119.076691,47.746372 119.656731,47.821701 120.427582,47.856297 
	C120.618393,47.815563 120.985817,47.684109 120.985817,47.684109 
	C122.335411,48.853638 123.684998,50.023163 125.098740,51.529793 
z"/>
<path fill="#C6D7E7" opacity="1.000000" stroke="none" 
	d="
M89.426285,53.042027 
	C90.400108,52.544563 91.865166,52.137367 93.198929,51.468414 
	C93.459557,51.337696 93.210922,50.191597 93.064407,49.269333 
	C93.717903,49.012386 94.504173,48.999928 96.052109,48.987473 
	C97.548454,49.035606 98.283142,49.083740 99.017822,49.131874 
	C97.972893,55.123413 93.174126,52.331596 89.426285,53.042027 
z"/>
<path fill="#E2F4FA" opacity="1.000000" stroke="none" 
	d="
M69.756523,51.026630 
	C69.264145,53.603146 67.858459,53.721252 64.367477,50.975502 
	C63.693058,50.269062 63.358799,50.069542 63.001427,49.633400 
	C62.978310,49.396774 62.936874,48.923088 62.951286,48.931709 
	C62.965694,48.940331 62.929714,48.945633 62.929714,48.945633 
	C64.001350,48.965794 65.072983,48.985954 66.587555,49.338936 
	C67.688118,50.115749 68.345734,50.559742 69.003357,51.003735 
	C69.170761,51.007870 69.338165,51.012005 69.756523,51.026630 
z"/>
<path fill="#A8BBD4" opacity="1.000000" stroke="none" 
	d="
M123.944649,42.156857 
	C123.993088,42.748619 124.041534,43.340382 123.754471,44.344055 
	C122.274857,45.147572 121.130760,45.539177 119.845276,45.688454 
	C119.184464,45.286106 118.665031,45.126091 118.145607,44.966072 
	C119.180779,44.005024 120.215958,43.043976 121.922409,42.110260 
	C123.043999,42.144012 123.494324,42.150436 123.944649,42.156857 
z"/>
<path fill="#828CB4" opacity="1.000000" stroke="none" 
	d="
M50.922237,48.053707 
	C50.189632,48.109081 49.457031,48.164452 48.358261,47.709648 
	C48.025379,46.306458 48.058662,45.413433 48.091946,44.520416 
	C49.808937,44.943356 51.525925,45.366295 53.583355,46.147270 
	C53.938614,46.691418 53.953438,46.877529 53.626072,47.081608 
	C52.496670,47.417622 51.709454,47.735664 50.922237,48.053707 
z"/>
<path fill="#828CB4" opacity="1.000000" stroke="none" 
	d="
M60.872597,30.167233 
	C62.048538,30.339037 63.224480,30.510841 64.681625,31.082300 
	C64.962830,31.481953 65.000771,31.933535 65.100433,32.008781 
	C65.200104,32.084030 65.189140,32.333553 65.189140,32.333553 
	C63.591064,32.708443 61.992989,33.083332 60.182919,32.991951 
	C59.970924,32.525684 59.911793,32.130154 60.136639,31.972767 
	C60.575012,31.530466 60.788544,31.245552 60.970512,30.762156 
	C60.938957,30.563671 60.872597,30.167233 60.872597,30.167233 
z"/>
<path fill="#D1E1ED" opacity="1.000000" stroke="none" 
	d="
M44.900669,47.027401 
	C44.190887,47.021626 43.481106,47.015850 42.418236,47.025818 
	C42.486652,46.048096 42.908161,45.054630 43.672089,43.964798 
	C44.660221,44.227367 45.305939,44.586311 46.213146,45.269745 
	C45.949978,46.071953 45.425323,46.549675 44.900669,47.027401 
z"/>
<path fill="#C6D7E7" opacity="1.000000" stroke="none" 
	d="
M105.732521,48.897877 
	C106.013214,49.207394 105.994781,49.401302 105.588173,49.825340 
	C104.462723,50.383827 103.725449,50.712181 102.988174,51.040535 
	C102.333687,50.598473 101.679192,50.156410 101.013451,49.390324 
	C102.479263,48.971622 103.956329,48.876945 105.732521,48.897877 
z"/>
<path fill="#7478A8" opacity="1.000000" stroke="none" 
	d="
M55.260365,46.738182 
	C57.725464,47.243515 60.190559,47.748848 62.792686,48.599907 
	C62.929714,48.945633 62.965694,48.940331 62.569489,48.908379 
	C60.128040,48.622700 58.082794,48.368977 55.811081,47.983658 
	C55.385799,47.573372 55.186985,47.294682 55.055260,46.945602 
	C55.122353,46.875210 55.260365,46.738182 55.260365,46.738182 
z"/>
<path fill="#B3C3DA" opacity="1.000000" stroke="none" 
	d="
M97.944595,32.063953 
	C98.746056,28.488274 100.214188,31.093239 101.786003,32.060120 
	C102.106926,32.436016 102.235283,32.847218 102.235283,32.847218 
	C101.131378,32.889481 100.027481,32.931740 98.469742,32.748886 
	C98.015907,32.523773 97.944595,32.063953 97.944595,32.063953 
z"/>
<path fill="#B3C3DA" opacity="1.000000" stroke="none" 
	d="
M102.992500,31.984343 
	C104.654724,30.820536 106.227303,29.200768 108.711929,31.320875 
	C108.968796,31.971672 108.968246,32.211967 108.967705,32.452263 
	C108.769875,32.716595 108.506943,32.867409 107.738861,32.600769 
	C105.863373,32.192673 104.427940,32.088509 102.992500,31.984343 
z"/>
<path fill="#99A3C3" opacity="1.000000" stroke="none" 
	d="
M54.840424,29.117163 
	C55.193394,29.046026 55.501221,29.133560 55.905827,29.866024 
	C56.036507,30.528170 56.025269,30.704058 56.008682,31.147015 
	C56.001114,31.592146 55.998886,31.770212 55.961555,32.202042 
	C55.970913,32.620701 56.015377,32.785599 56.059837,32.950500 
	C55.081924,32.501266 54.104015,32.052036 53.242607,31.200680 
	C53.688728,30.681879 53.882183,30.451107 54.130844,29.972475 
	C54.644978,29.705891 54.817715,29.465376 54.840424,29.117163 
z"/>
<path fill="#8992BA" opacity="1.000000" stroke="none" 
	d="
M45.204105,47.153915 
	C45.425323,46.549675 45.949978,46.071953 46.488571,45.308636 
	C46.867527,44.744244 47.232552,44.465446 47.844761,44.353531 
	C48.058662,45.413433 48.025379,46.306458 47.990257,47.642731 
	C47.161457,47.817471 46.334499,47.548954 45.204105,47.153915 
z"/>
<path fill="#423A88" opacity="1.000000" stroke="none" 
	d="
M102.753189,32.039726 
	C104.427940,32.088509 105.863373,32.192673 107.507370,32.577744 
	C106.150459,32.863827 104.584999,32.869007 102.627411,32.860703 
	C102.235283,32.847218 102.106926,32.436016 102.068275,32.224243 
	C102.029625,32.012466 102.513885,32.095112 102.753189,32.039726 
z"/>
<path fill="#B7CEE1" opacity="1.000000" stroke="none" 
	d="
M115.024719,31.192833 
	C115.014061,31.613668 115.003395,32.034504 114.648315,32.720898 
	C113.650757,33.029037 112.997620,33.071621 112.344475,33.114204 
	C112.011162,32.950962 111.677856,32.787724 111.454880,32.319359 
	C112.028404,31.667917 112.491592,31.321606 113.302162,30.990593 
	C114.107941,31.068205 114.566330,31.130518 115.024719,31.192833 
z"/>
<path fill="#DBECF4" opacity="1.000000" stroke="none" 
	d="
M97.569748,32.046326 
	C97.944595,32.063953 98.015907,32.523773 98.054710,32.753166 
	C96.718964,32.981380 95.344421,32.980202 93.567673,32.959877 
	C94.508606,32.636719 95.851753,32.332706 97.569748,32.046326 
z"/>
<path fill="#D8E9F3" opacity="1.000000" stroke="none" 
	d="
M69.810928,32.005913 
	C70.129356,32.026211 70.026299,32.502937 69.945755,32.733246 
	C68.482491,32.897194 67.099777,32.830830 65.453094,32.549011 
	C65.189140,32.333553 65.200104,32.084030 65.486069,32.025448 
	C66.800209,31.955301 67.828392,31.943739 68.856575,31.932178 
	C69.068542,31.949989 69.280518,31.967800 69.810928,32.005913 
z"/>
<path fill="#2F257F" opacity="1.000000" stroke="none" 
	d="
M99.325966,49.071144 
	C98.283142,49.083740 97.548454,49.035606 96.444305,48.982124 
	C97.582169,48.727726 99.089493,48.478676 100.740143,48.556885 
	C100.467010,48.926243 100.050560,48.968330 99.325966,49.071144 
z"/>
<path fill="#BDCEE0" opacity="1.000000" stroke="none" 
	d="
M117.835907,44.985725 
	C118.665031,45.126091 119.184464,45.286106 119.512497,45.821041 
	C118.961014,46.508114 118.600914,46.820267 118.200150,47.148697 
	C118.159477,47.164974 118.110893,47.237892 118.110893,47.237892 
	C117.934082,47.183025 117.757278,47.128162 117.276741,46.690857 
	C116.949127,46.096100 116.925232,45.883781 116.864929,45.513351 
	C116.828514,45.355244 116.906540,45.040272 116.906540,45.040272 
	C117.113091,45.028641 117.319649,45.017006 117.835907,44.985725 
z"/>
<path fill="#393284" opacity="1.000000" stroke="none" 
	d="
M56.452484,32.971748 
	C56.015377,32.785599 55.970913,32.620701 56.353546,32.211178 
	C57.824356,32.021084 58.868073,32.075619 59.911793,32.130154 
	C59.911793,32.130154 59.970924,32.525684 59.983810,32.725025 
	C58.946175,32.947247 57.895653,32.970123 56.452484,32.971748 
z"/>
<path fill="#4F4C91" opacity="1.000000" stroke="none" 
	d="
M112.954773,30.975296 
	C112.491592,31.321606 112.028404,31.667917 111.269592,32.107014 
	C110.516113,32.191902 110.058281,32.184006 109.284073,32.314186 
	C108.968246,32.211967 108.968796,31.971672 109.015320,31.373884 
	C109.061310,31.016390 109.063957,30.923904 109.382599,30.958408 
	C110.425606,30.934998 111.149986,30.877083 112.156006,30.909664 
	C112.634735,31.007908 112.831802,31.015657 113.004814,31.019848 
	C112.980759,31.016293 112.954773,30.975296 112.954773,30.975296 
z"/>
<path fill="#DBECF5" opacity="1.000000" stroke="none" 
	d="
M112.988297,47.027641 
	C112.988297,47.027641 112.994804,47.503025 112.994347,47.740471 
	C112.696671,47.372211 112.399452,46.766510 112.476517,46.345936 
	C112.896645,46.696587 112.942474,46.862114 112.988297,47.027641 
z"/>
<path fill="#C6D7E7" opacity="1.000000" stroke="none" 
	d="
M68.961594,50.678337 
	C68.345734,50.559742 67.688118,50.115749 66.989471,49.343269 
	C67.605576,49.460831 68.262703,49.906883 68.961594,50.678337 
z"/>
<path fill="#48408A" opacity="1.000000" stroke="none" 
	d="
M46.644928,30.339745 
	C47.473171,30.139601 48.495232,30.302933 49.790245,30.748333 
	C48.988377,30.921341 47.913563,30.812283 46.644928,30.339745 
z"/>
<path fill="#D8E9F3" opacity="1.000000" stroke="none" 
	d="
M53.939476,30.106243 
	C53.882183,30.451107 53.688728,30.681879 53.139282,30.885689 
	C52.526333,30.973919 52.133221,30.975016 51.448414,30.949244 
	C51.156719,30.922373 51.064083,30.474651 51.396351,30.226765 
	C52.465572,30.021334 53.202522,30.063787 53.939476,30.106243 
z"/>
<path fill="#48408A" opacity="1.000000" stroke="none" 
	d="
M115.256760,31.121124 
	C114.566330,31.130518 114.107941,31.068205 113.302162,30.990593 
	C112.954773,30.975296 112.980759,31.016293 113.071564,30.841255 
	C113.162361,30.666216 113.122070,30.287054 113.122070,30.287054 
	C113.122070,30.287054 113.583725,30.174135 114.123642,30.078947 
	C115.108063,29.990889 115.552574,29.998018 116.011414,30.233231 
	C116.025757,30.461309 115.954948,30.912851 115.954948,30.912851 
	C115.954948,30.912851 115.488808,31.049416 115.256760,31.121124 
z"/>
<path fill="#48408A" opacity="1.000000" stroke="none" 
	d="
M116.555344,44.973015 
	C116.906540,45.040272 116.828514,45.355244 116.504013,45.602119 
	C115.450058,45.986458 114.720604,46.123924 113.978271,45.956329 
	C113.999023,45.450500 114.032669,45.249741 114.066307,45.048981 
	C114.778923,45.001236 115.491531,44.953495 116.555344,44.973015 
z"/>
<path fill="#48408A" opacity="1.000000" stroke="none" 
	d="
M43.503010,29.445848 
	C43.986160,29.042501 44.662174,28.945478 45.679733,28.851170 
	C46.089401,29.058207 46.157524,29.262529 46.385521,29.747585 
	C45.595558,29.936270 44.645718,29.844221 43.503010,29.445848 
z"/>
<path fill="#453C8B" opacity="1.000000" stroke="none" 
	d="
M112.398621,33.415176 
	C112.997620,33.071621 113.650757,33.029037 114.628479,33.036007 
	C114.119629,33.295757 113.286201,33.505951 112.398621,33.415176 
z"/>
<path fill="#A7ACC9" opacity="1.000000" stroke="none" 
	d="
M113.769104,45.115387 
	C114.032669,45.249741 113.999023,45.450500 114.029495,46.150673 
	C114.093613,46.650082 114.168320,47.045601 114.168320,47.045601 
	C113.971642,47.045021 113.774956,47.044441 113.283279,47.035751 
	C112.942474,46.862114 112.896645,46.696587 112.745605,46.294868 
	C112.917580,45.766380 113.194748,45.474087 113.769104,45.115387 
z"/>
<path fill="#7878AA" opacity="1.000000" stroke="none" 
	d="
M117.008324,28.868288 
	C117.680473,29.034424 118.352615,29.200560 119.176544,29.696194 
	C118.864883,30.114992 118.401436,30.204292 117.447174,30.126884 
	C116.956367,29.960176 116.688133,29.693512 116.760773,29.484331 
	C116.833412,29.275150 117.008324,28.868288 117.008324,28.868288 
z"/>
<path fill="#5B5C98" opacity="1.000000" stroke="none" 
	d="
M123.926147,41.712032 
	C123.494324,42.150436 123.043999,42.144012 122.260361,42.072170 
	C122.347450,41.530235 122.767853,41.053719 123.498001,40.479805 
	C123.841026,40.677345 123.874329,40.972275 123.926147,41.712032 
z"/>
<path fill="#7878AA" opacity="1.000000" stroke="none" 
	d="
M116.211754,30.900673 
	C115.954948,30.912851 116.025757,30.461309 116.177109,30.139626 
	C116.328453,29.817944 116.688133,29.693512 116.688133,29.693512 
	C116.688133,29.693512 116.956367,29.960176 117.091476,30.095524 
	C116.973915,30.450079 116.721237,30.669287 116.211754,30.900673 
z"/>
<path fill="#48408A" opacity="1.000000" stroke="none" 
	d="
M50.014660,31.052967 
	C49.949265,30.948620 50.268295,31.173929 50.461033,31.203552 
	C50.653770,31.233175 50.342224,31.357145 50.342224,31.357145 
	C50.342224,31.357145 50.080055,31.157314 50.014660,31.052967 
z"/>
<path fill="#7478A8" opacity="1.000000" stroke="none" 
	d="
M53.968258,47.063637 
	C53.953438,46.877529 53.938614,46.691418 53.953781,46.226746 
	C54.306892,46.071457 54.630013,46.194736 55.106750,46.528099 
	C55.260365,46.738182 55.122353,46.875210 54.800629,46.963486 
	C54.308693,47.055717 54.138477,47.059677 53.968258,47.063637 
z"/>
<path fill="#B7CEE1" opacity="1.000000" stroke="none" 
	d="
M116.451035,33.528412 
	C116.419449,33.474041 116.482620,33.582787 116.451035,33.528412 
z"/>
<path fill="#C6D9E9" opacity="1.000000" stroke="none" 
	d="
M116.760773,29.484331 
	C116.688133,29.693512 116.328453,29.817944 116.162766,29.911547 
	C115.552574,29.998018 115.108063,29.990889 114.330582,29.962118 
	C115.417633,28.655502 116.837662,27.370527 118.621811,26.042217 
	C118.455963,26.796518 117.925995,27.594152 117.202179,28.630035 
	C117.008324,28.868288 116.833412,29.275150 116.760773,29.484331 
z"/>
<path fill="#A8BBD4" opacity="1.000000" stroke="none" 
	d="
M112.999374,29.972828 
	C113.122070,30.287054 113.162361,30.666216 113.095612,30.844810 
	C112.831802,31.015657 112.634735,31.007908 112.002975,30.691599 
	C111.064674,30.225801 110.561066,30.068560 110.057457,29.911320 
	C110.733475,26.885088 111.817169,28.406687 112.999374,29.972828 
z"/>
<path fill="#2F257F" opacity="1.000000" stroke="none" 
	d="
M63.862305,16.092834 
	C63.857319,16.166729 63.955868,16.519773 63.927330,16.700741 
	C62.543652,16.894909 61.188511,16.908113 59.430054,16.867653 
	C59.026741,16.813988 59.170513,16.560740 59.549362,16.350330 
	C61.285858,16.078461 62.643505,16.016998 64.001152,15.955534 
	C64.001152,15.955534 63.867290,16.018942 63.862305,16.092834 
z"/>
<path fill="#D1E3EF" opacity="1.000000" stroke="none" 
	d="
M100.171494,15.270507 
	C101.064873,15.020911 102.123352,15.014746 103.578812,14.984495 
	C103.497108,15.272353 103.018410,15.584295 102.265671,15.947081 
	C101.439949,15.836594 100.888260,15.675264 100.171494,15.270507 
z"/>
<path fill="#423A88" opacity="1.000000" stroke="none" 
	d="
M56.014027,30.879948 
	C56.025269,30.704058 56.036507,30.528170 56.014290,30.088911 
	C57.342510,29.900490 58.704182,29.975441 60.469223,30.108810 
	C60.872597,30.167233 60.938957,30.563671 60.554497,30.776964 
	C58.784698,30.953487 57.399364,30.916718 56.014027,30.879948 
z"/>
<path fill="#2F257F" opacity="1.000000" stroke="none" 
	d="
M68.732819,31.596193 
	C67.828392,31.943739 66.800209,31.955301 65.386398,31.950199 
	C65.000771,31.933535 64.962830,31.481953 65.001526,31.258770 
	C66.229836,31.110462 67.419441,31.185335 68.732819,31.596193 
z"/>
<path fill="#453C8B" opacity="1.000000" stroke="none" 
	d="
M54.130844,29.972473 
	C53.202522,30.063787 52.465572,30.021334 51.359898,30.001089 
	C52.033070,29.695164 53.074966,29.367029 54.478642,29.078030 
	C54.817715,29.465376 54.644978,29.705891 54.130844,29.972473 
z"/>
<path fill="#D8E9F3" opacity="1.000000" stroke="none" 
	d="
M107.208107,16.409868 
	C107.771294,16.206511 108.447723,16.196089 109.462158,16.208422 
	C109.393219,16.495117 108.986290,16.759058 108.324074,17.058292 
	C107.781898,16.987442 107.532753,16.823849 107.208107,16.409868 
z"/>
<path fill="#D8E9F3" opacity="1.000000" stroke="none" 
	d="
M55.130405,16.992729 
	C54.443714,16.949980 53.958988,16.805977 53.339821,16.446365 
	C53.881287,16.200243 54.557198,16.169729 55.569069,16.178055 
	C55.792191,16.507967 55.601299,16.732826 55.130405,16.992729 
z"/>
<path fill="#D8E9F3" opacity="1.000000" stroke="none" 
	d="
M109.840286,30.027784 
	C110.561066,30.068560 111.064674,30.225801 111.721321,30.601105 
	C111.149986,30.877083 110.425606,30.934998 109.341919,30.936375 
	C109.136086,30.582405 109.349594,30.337208 109.840286,30.027784 
z"/>
<path fill="#5F5D9A" opacity="1.000000" stroke="none" 
	d="
M46.323242,20.094776 
	C45.989491,20.038483 45.966614,19.545542 46.314445,19.261677 
	C47.045708,18.899897 47.429146,18.821983 47.812580,18.744070 
	C47.997505,18.802797 48.182434,18.861523 48.644920,19.007120 
	C48.167324,19.446352 47.412159,19.798710 46.323242,20.094776 
z"/>
<path fill="#5F5D9A" opacity="1.000000" stroke="none" 
	d="
M44.288841,21.385418 
	C44.404678,21.002306 44.843349,20.492081 45.661621,19.985407 
	C45.564705,20.412073 45.088196,20.835188 44.288841,21.385418 
z"/>
<path fill="#EA6B67" opacity="1.000000" stroke="none" 
	d="
M100.963158,162.973145 
	C100.230423,162.987640 99.497681,163.002151 98.255539,162.751724 
	C97.158943,162.361786 96.571747,162.236801 95.854614,161.787476 
	C90.009758,156.268524 91.029137,150.096497 93.504684,143.774567 
	C97.894524,142.477829 101.935516,141.170288 106.279022,140.026093 
	C115.691299,146.958633 115.825127,146.728821 112.867264,158.969498 
	C110.474609,159.978012 108.081955,160.986511 104.967812,162.037964 
	C103.151932,162.378326 102.057549,162.675735 100.963158,162.973145 
z"/>
<path fill="#F5D068" opacity="1.000000" stroke="none" 
	d="
M58.890602,161.936798 
	C56.122345,161.373474 53.354088,160.810150 50.041630,160.147858 
	C49.497433,160.048874 49.021145,159.938812 49.021149,159.938812 
	C45.906120,158.043198 42.791092,156.147583 39.331718,153.786484 
	C39.037727,152.884827 39.088081,152.448669 39.404724,151.793930 
	C42.241119,143.677109 46.510876,138.381195 56.241028,141.094955 
	C58.979668,143.208649 61.401218,145.187592 63.656708,147.444275 
	C60.055988,151.091873 62.560528,155.276657 61.657578,159.146515 
	C60.547836,160.152618 59.719219,161.044708 58.890602,161.936798 
z"/>
<path fill="#8ACBE0" opacity="1.000000" stroke="none" 
	d="
M61.938702,159.032486 
	C62.560528,155.276657 60.055988,151.091873 63.837189,147.115509 
	C67.096169,145.291763 70.008598,144.074509 73.227654,143.031540 
	C76.051079,144.491211 78.567886,145.776581 80.908096,147.400024 
	C77.747528,153.109375 78.193481,158.193192 82.010254,162.994461 
	C77.943428,163.033646 73.876602,163.072845 69.174759,162.996567 
	C68.037971,162.961609 67.536209,163.042130 67.034439,163.122650 
	C65.908836,162.781525 64.783234,162.440384 63.303215,161.778641 
	C62.612095,160.649521 62.275398,159.841003 61.938702,159.032486 
z"/>
<path fill="#B4A9D3" opacity="1.000000" stroke="none" 
	d="
M113.224548,158.973297 
	C115.825127,146.728821 115.691299,146.958633 106.440903,139.773560 
	C106.835274,138.581375 107.370277,137.805054 108.316422,136.971100 
	C115.165314,134.164413 120.532051,137.491318 126.045471,139.994934 
	C126.042068,140.023071 125.986984,140.036530 125.986984,140.036530 
	C126.269249,140.834915 126.551529,141.633286 126.975410,142.722031 
	C126.292000,146.543518 125.466980,150.074615 124.338326,153.863312 
	C121.264046,155.734589 118.493401,157.348267 115.364594,159.008057 
	C114.531570,159.028473 114.056702,159.002777 113.224548,158.973297 
z"/>
<path fill="#ED9AB8" opacity="1.000000" stroke="none" 
	d="
M82.348755,163.112915 
	C78.193481,158.193192 77.747528,153.109375 81.210495,147.235382 
	C85.423477,145.160721 89.157448,143.588776 92.939995,142.308319 
	C93.044334,142.987793 93.100082,143.375778 93.155838,143.763763 
	C91.029137,150.096497 90.009758,156.268524 95.764114,162.011383 
	C95.600105,162.821503 95.345360,163.016281 95.039276,163.143967 
	C90.921936,163.173096 86.804588,163.202225 82.348755,163.112915 
z"/>
<path fill="#EC99B8" opacity="1.000000" stroke="none" 
	d="
M55.923935,140.960220 
	C46.510876,138.381195 42.241119,143.677109 39.229553,151.538635 
	C38.209137,151.324295 37.630177,151.146683 37.051216,150.969055 
	C36.995392,150.671051 36.939560,150.373032 36.746964,149.279755 
	C35.848690,142.255722 34.854240,136.011993 38.135109,130.131836 
	C43.040882,134.599655 48.438862,136.148300 54.847382,135.290833 
	C55.352474,137.358490 55.638203,139.159348 55.923935,140.960220 
z"/>
<path fill="#C1DAE9" opacity="1.000000" stroke="none" 
	d="
M36.026363,78.975319 
	C36.023529,82.021751 36.020699,85.068176 36.016258,89.036423 
	C36.012234,99.941513 36.009823,109.924789 35.990437,120.328384 
	C36.316879,123.457268 36.660290,126.165825 36.709145,128.796234 
	C35.950188,128.148010 35.485779,127.577919 35.021374,127.007828 
	C34.702030,126.451134 34.101948,125.893280 34.104225,125.337906 
	C34.168213,109.749298 34.293095,94.160942 34.822525,78.500206 
	C35.438736,78.698921 35.701832,78.881401 36.026363,78.975319 
z"/>
<path fill="#E2F4FA" opacity="1.000000" stroke="none" 
	d="
M36.318672,78.682175 
	C35.701832,78.881401 35.438736,78.698921 35.126194,78.211037 
	C35.016445,72.645477 35.017586,67.296761 35.060814,61.484413 
	C35.730785,61.836636 36.891026,62.647114 36.899307,63.469196 
	C36.949383,68.441002 36.736168,73.415451 36.318672,78.682175 
z"/>
<path fill="#342B81" opacity="1.000000" stroke="none" 
	d="
M34.978352,127.474266 
	C35.485779,127.577919 35.950188,128.148010 36.770531,129.035339 
	C37.221748,129.703583 37.444939,129.926407 37.796040,130.021072 
	C34.854240,136.011993 35.848690,142.255722 36.649910,148.835419 
	C36.102646,147.701416 35.063290,146.232712 35.009411,144.728683 
	C34.809174,139.138992 34.933113,133.537659 34.978352,127.474266 
z"/>
<path fill="#C1DAE9" opacity="1.000000" stroke="none" 
	d="
M61.657578,159.146515 
	C62.275398,159.841003 62.612095,160.649521 62.949936,161.816772 
	C61.742256,162.271835 60.533432,162.368164 59.107609,162.200638 
	C59.719219,161.044708 60.547836,160.152618 61.657578,159.146515 
z"/>
<path fill="#C1DAE9" opacity="1.000000" stroke="none" 
	d="
M36.809319,54.117702 
	C36.632046,55.585743 36.176136,57.276833 35.375282,59.024200 
	C35.530449,57.500568 36.030567,55.920658 36.809319,54.117702 
z"/>
<path fill="#C1DAE9" opacity="1.000000" stroke="none" 
	d="
M36.799374,151.156982 
	C37.630177,151.146683 38.209137,151.324295 38.963264,151.757202 
	C39.088081,152.448669 39.037727,152.884827 39.022758,153.648621 
	C38.221275,153.099152 37.384403,152.222031 36.799374,151.156982 
z"/>
<path fill="#C1DAE9" opacity="1.000000" stroke="none" 
	d="
M95.233879,163.369995 
	C95.345360,163.016281 95.600105,162.821503 95.894035,162.335709 
	C96.571747,162.236801 97.158943,162.361786 97.889175,162.759949 
	C97.164291,163.220734 96.296387,163.408371 95.233879,163.369995 
z"/>
<path fill="#C1DAE9" opacity="1.000000" stroke="none" 
	d="
M101.321762,162.987976 
	C102.057549,162.675735 103.151932,162.378326 104.601303,162.120575 
	C103.864311,162.441086 102.772339,162.721939 101.321762,162.987976 
z"/>
<path fill="#C1DAE9" opacity="1.000000" stroke="none" 
	d="
M67.183304,163.327759 
	C67.536209,163.042130 68.037971,162.961609 68.762619,162.975586 
	C68.434395,163.224350 67.883286,163.378586 67.183304,163.327759 
z"/>
<path fill="#C1DAE9" opacity="1.000000" stroke="none" 
	d="
M53.831146,163.696411 
	C53.468037,163.978317 52.958195,164.050705 52.230064,164.017426 
	C52.569321,163.770126 53.126869,163.628510 53.831146,163.696411 
z"/>
<path fill="#C1DAE9" opacity="1.000000" stroke="none" 
	d="
M60.827339,164.694702 
	C60.469341,164.985916 59.961071,165.065887 59.228279,165.059372 
	C59.561523,164.809738 60.119297,164.646606 60.827339,164.694702 
z"/>
<path fill="#C1DAE9" opacity="1.000000" stroke="none" 
	d="
M114.243195,162.846985 
	C113.864761,162.938202 113.693375,162.940521 113.265320,162.933441 
	C113.445312,162.627869 113.881973,162.331726 114.593216,162.012527 
	C114.856880,162.315430 114.717697,162.571640 114.243195,162.846985 
z"/>
<path fill="#C1DAE9" opacity="1.000000" stroke="none" 
	d="
M68.853897,165.741791 
	C68.557449,165.967728 68.113350,165.972595 67.336258,165.977356 
	C67.570915,165.825058 68.138573,165.672882 68.853897,165.741791 
z"/>
<path fill="#C1DAE9" opacity="1.000000" stroke="none" 
	d="
M49.077095,160.113739 
	C49.021145,159.938812 49.497433,160.048874 49.732765,160.114731 
	C49.689747,160.216614 49.411396,160.252625 49.077095,160.113739 
z"/>
<path fill="#C1DAE9" opacity="1.000000" stroke="none" 
	d="
M38.757355,50.157135 
	C38.927254,50.408100 38.751450,50.668224 38.229401,50.941212 
	C38.085342,50.709507 38.261509,50.446915 38.757355,50.157135 
z"/>
<path fill="#291F79" opacity="1.000000" stroke="none" 
	d="
M125.989685,122.023796 
	C126.319786,119.226357 126.834557,116.435898 126.940491,113.629997 
	C127.143852,108.243446 127.115326,102.848137 127.576996,97.283127 
	C127.977135,109.656700 128.028961,122.203957 127.934425,134.750107 
	C127.921898,136.412033 127.164345,138.068344 126.369408,139.881897 
	C125.986984,140.036530 126.042068,140.023071 126.004379,139.575256 
	C125.974350,133.426239 125.982018,127.725014 125.989685,122.023796 
z"/>
<path fill="#D1E1ED" opacity="1.000000" stroke="none" 
	d="
M128.032471,65.546013 
	C127.010284,64.216011 125.989532,62.474133 124.779076,60.408539 
	C123.326012,61.430729 121.586769,62.654232 119.847527,63.877735 
	C119.502121,63.606262 119.156715,63.334789 118.811310,63.063316 
	C120.497116,60.619667 122.182915,58.176018 124.244232,55.402706 
	C125.413002,55.371269 126.206268,55.669495 126.999527,55.967720 
	C126.999527,55.967720 126.986031,56.445457 126.955505,56.681847 
	C127.248978,58.073154 127.572975,59.228073 127.946922,60.693077 
	C128.009216,62.380154 128.021545,63.757145 128.032471,65.546013 
z"/>
<path fill="#B7CEE1" opacity="1.000000" stroke="none" 
	d="
M126.953850,55.581589 
	C126.206268,55.669495 125.413002,55.371269 124.299118,55.059162 
	C124.300972,54.102524 124.623444,53.159763 125.158051,51.939133 
	C125.370186,51.661263 125.512894,51.490246 125.614105,51.446545 
	C126.112946,52.667046 126.510559,53.931248 126.953850,55.581589 
z"/>
<path fill="#3C3485" opacity="1.000000" stroke="none" 
	d="
M118.240814,47.132416 
	C118.600914,46.820267 118.961014,46.508114 119.653885,46.063370 
	C121.130760,45.539177 122.274857,45.147572 123.696236,44.639484 
	C123.105606,45.408112 122.237694,46.293224 121.177795,47.431221 
	C120.985817,47.684109 120.618393,47.815563 120.170815,47.581306 
	C119.229095,47.275505 118.734955,47.203960 118.240814,47.132416 
z"/>
<path fill="#D1E3EF" opacity="1.000000" stroke="none" 
	d="
M63.872849,15.735090 
	C62.643505,16.016998 61.285858,16.078461 59.526070,16.206600 
	C58.978680,15.930431 58.833431,15.587587 58.860817,15.095884 
	C60.067078,14.934784 61.100716,14.922543 62.522270,14.917286 
	C63.188305,15.121063 63.466423,15.317855 63.872849,15.735090 
z"/>
<path fill="#D8E9F3" opacity="1.000000" stroke="none" 
	d="
M47.628647,18.548769 
	C47.429146,18.821983 47.045708,18.899897 46.372116,19.021774 
	C45.863785,18.976240 45.659752,18.861591 45.393715,18.565872 
	C46.026611,18.391123 46.735664,18.372295 47.628647,18.548769 
z"/>
<path fill="#B5AAD4" opacity="1.000000" stroke="none" 
	d="
M38.135109,130.131836 
	C37.444939,129.926407 37.221748,129.703583 37.065086,129.113495 
	C36.660290,126.165825 36.316879,123.457268 36.273293,120.175728 
	C37.062321,118.410103 37.551521,117.217461 38.040726,116.024826 
	C43.993366,111.300621 50.560623,112.177299 57.514870,114.218536 
	C58.966637,117.884491 60.126431,121.251770 61.139748,124.927574 
	C58.871517,128.498749 56.749763,131.761383 54.628014,135.024033 
	C48.438862,136.148300 43.040882,134.599655 38.135109,130.131836 
z"/>
<path fill="#8BCDE1" opacity="1.000000" stroke="none" 
	d="
M125.686890,121.861435 
	C125.982018,127.725014 125.974350,133.426239 126.007774,139.547119 
	C120.532051,137.491318 115.165314,134.164413 108.115761,136.679520 
	C106.035126,133.045181 105.117218,129.612061 107.046288,125.716248 
	C109.945259,123.373596 112.741814,121.407104 115.391815,119.259758 
	C116.491837,118.368401 117.278732,117.090630 118.208031,115.988586 
	C120.600052,117.892082 122.992081,119.795586 125.686890,121.861435 
z"/>
<path fill="#F3CE68" opacity="1.000000" stroke="none" 
	d="
M61.286224,124.619049 
	C60.126431,121.251770 58.966637,117.884491 57.850334,114.191452 
	C60.256866,107.753204 65.062340,106.289505 71.800186,107.022873 
	C74.763680,108.710526 76.926620,110.355309 79.014420,112.402359 
	C78.913574,116.845589 78.887878,120.886574 78.526733,124.957809 
	C76.498970,125.986755 74.806648,126.985443 72.924889,127.688385 
	C69.502724,124.058723 65.396454,124.330696 61.286224,124.619049 
z"/>
<path fill="#B8ADD6" opacity="1.000000" stroke="none" 
	d="
M79.089554,112.000099 
	C76.926620,110.355309 74.763680,108.710526 72.234772,106.988358 
	C73.393112,98.173599 78.198975,93.596275 86.926643,92.569214 
	C90.620529,92.134521 96.551712,97.971405 96.992218,102.418793 
	C97.152023,104.032196 97.452637,105.631660 97.749802,107.845345 
	C97.497978,108.695297 97.185379,108.937386 96.485138,109.069977 
	C89.766716,106.272507 84.399338,108.975166 79.089554,112.000099 
z"/>
<path fill="#ED9AB8" opacity="1.000000" stroke="none" 
	d="
M96.872772,109.179474 
	C97.185379,108.937386 97.497978,108.695297 97.948898,108.186539 
	C105.890839,102.523468 116.951942,106.966766 118.141106,115.620270 
	C117.278732,117.090630 116.491837,118.368401 115.391815,119.259758 
	C112.741814,121.407104 109.945259,123.373596 106.686920,125.673424 
	C104.413292,125.275673 102.660568,124.617538 100.941582,123.517799 
	C102.039284,117.726143 99.948174,113.307518 96.872772,109.179474 
z"/>
<path fill="#E2F4FA" opacity="1.000000" stroke="none" 
	d="
M37.736450,115.732605 
	C37.551521,117.217461 37.062321,118.410103 36.290264,119.755402 
	C36.009823,109.924789 36.012234,99.941513 36.022125,89.492950 
	C36.353474,92.729820 36.789856,96.426399 36.973888,100.135513 
	C37.226757,105.232170 37.288525,110.338310 37.736450,115.732605 
z"/>
<path fill="#B3BFD7" opacity="1.000000" stroke="none" 
	d="
M53.626072,47.081608 
	C54.138477,47.059677 54.308693,47.055717 54.733536,47.033875 
	C55.186985,47.294682 55.385799,47.573372 55.795277,48.179897 
	C56.005939,48.507732 56.018871,48.901981 55.625923,48.990421 
	C54.966621,49.044876 54.700264,49.010887 54.433907,48.976902 
	C54.433907,48.976902 54.522076,48.957436 54.255337,48.728233 
	C52.972919,48.327454 51.957245,48.155884 50.941566,47.984314 
	C50.941566,47.984314 50.977730,48.031712 50.949982,48.042709 
	C51.709454,47.735664 52.496670,47.417622 53.626072,47.081608 
z"/>
<path fill="#7878AA" opacity="1.000000" stroke="none" 
	d="
M61.075848,50.856682 
	C60.221302,50.720020 59.366756,50.583359 58.261311,50.007072 
	C58.010410,49.567444 57.928001,49.114925 58.265877,49.084641 
	C59.424355,49.409100 60.244957,49.763840 61.050568,50.303352 
	C61.035583,50.488121 61.075848,50.856682 61.075848,50.856682 
z"/>
<path fill="#423A88" opacity="1.000000" stroke="none" 
	d="
M51.115437,48.356255 
	C51.957245,48.155884 52.972919,48.327454 54.272217,48.770103 
	C53.466991,48.936855 52.378147,48.832527 51.115437,48.356255 
z"/>
<path fill="#393284" opacity="1.000000" stroke="none" 
	d="
M57.928001,49.114925 
	C57.928001,49.114925 58.010410,49.567444 58.003963,49.797337 
	C56.982441,49.874161 55.967369,49.721088 54.693100,49.272461 
	C54.700264,49.010887 54.966621,49.044876 55.943344,49.033623 
	C57.078472,49.030567 57.503235,49.072746 57.928001,49.114925 
z"/>
<path fill="#393284" opacity="1.000000" stroke="none" 
	d="
M61.457733,50.923668 
	C61.075848,50.856682 61.035583,50.488121 61.378506,50.271618 
	C62.155800,49.993416 62.590168,49.931717 63.024540,49.870022 
	C63.358799,50.069542 63.693058,50.269062 64.100601,50.755249 
	C63.395798,51.024826 62.617706,51.007740 61.457733,50.923668 
z"/>
<path fill="#423A88" opacity="1.000000" stroke="none" 
	d="
M103.316498,51.051216 
	C103.725449,50.712181 104.462723,50.383827 105.545593,50.114395 
	C105.142395,50.469505 104.393608,50.765701 103.316498,51.051216 
z"/>
<path fill="#D1E1ED" opacity="1.000000" stroke="none" 
	d="
M117.029129,63.979408 
	C117.169220,64.123123 117.282745,64.290260 117.396263,64.457405 
	C117.297836,64.414436 117.199417,64.371468 117.028534,64.192398 
	C116.956070,64.056290 117.002563,64.002838 117.029129,63.979408 
z"/>
<path fill="#C6E0ED" opacity="1.000000" stroke="none" 
	d="
M114.519012,47.041519 
	C114.168320,47.045601 114.093613,46.650082 114.042389,46.455734 
	C114.720604,46.123924 115.450058,45.986458 116.540421,45.760227 
	C116.925232,45.883781 116.949127,46.096100 117.006615,46.626514 
	C117.040215,46.944607 116.896362,47.076763 116.705795,47.116711 
	C116.515236,47.156658 116.273270,47.140305 116.273270,47.140305 
	C115.805412,47.106014 115.337563,47.071728 114.519012,47.041519 
z"/>
<path fill="#A7ACC9" opacity="1.000000" stroke="none" 
	d="
M116.218750,47.342098 
	C116.273270,47.140305 116.515236,47.156658 116.631790,47.180435 
	C116.648071,47.555408 116.547813,47.906605 116.447548,48.257797 
	C116.353111,48.019829 116.258675,47.781860 116.218750,47.342098 
z"/>
<path fill="#C6E0ED" opacity="1.000000" stroke="none" 
	d="
M118.200150,47.148697 
	C118.734955,47.203960 119.229095,47.275505 119.979996,47.622040 
	C119.656731,47.821701 119.076691,47.746372 118.303772,47.454468 
	C118.110893,47.237892 118.159477,47.164974 118.200150,47.148697 
z"/>
<path fill="#C6D7E7" opacity="1.000000" stroke="none" 
	d="
M63.001427,49.633400 
	C62.590168,49.931717 62.155800,49.993416 61.393494,50.086845 
	C60.244957,49.763840 59.424355,49.409100 58.265877,49.084641 
	C57.503235,49.072746 57.078472,49.030567 56.336288,48.945183 
	C56.018871,48.901981 56.005939,48.507732 56.021744,48.311493 
	C58.082794,48.368977 60.128040,48.622700 62.555077,48.899757 
	C62.936874,48.923088 62.978310,49.396774 63.001427,49.633400 
z"/>
<path fill="#CBDBEA" opacity="1.000000" stroke="none" 
	d="
M56.008682,31.147015 
	C57.399364,30.916718 58.784698,30.953487 60.586052,30.975449 
	C60.788544,31.245552 60.575012,31.530466 60.136639,31.972767 
	C58.868073,32.075619 57.824356,32.021084 56.388649,31.957415 
	C55.998886,31.770212 56.001114,31.592146 56.008682,31.147015 
z"/>
<path fill="#F3CE68" opacity="1.000000" stroke="none" 
	d="
M100.907845,123.959396 
	C102.660568,124.617538 104.413292,125.275673 106.525391,125.976639 
	C105.117218,129.612061 106.035126,133.045181 107.704636,136.737152 
	C107.370277,137.805054 106.835274,138.581375 106.138382,139.610199 
	C101.935516,141.170288 97.894524,142.477829 93.504684,143.774567 
	C93.100082,143.375778 93.044334,142.987793 93.102539,141.964569 
	C95.586517,137.529404 95.154655,133.772964 93.391479,129.999756 
	C96.130409,127.957710 98.519127,125.958549 100.907845,123.959396 
z"/>
<path fill="#E66A68" opacity="1.000000" stroke="none" 
	d="
M61.139748,124.927574 
	C65.396454,124.330696 69.502724,124.058723 72.778839,128.003937 
	C69.383247,133.386673 70.632645,138.125580 72.921036,142.857269 
	C70.008598,144.074509 67.096169,145.291763 64.003250,146.837769 
	C61.401218,145.187592 58.979668,143.208649 56.241028,141.094955 
	C55.638203,139.159348 55.352474,137.358490 54.847382,135.290833 
	C56.749763,131.761383 58.871517,128.498749 61.139748,124.927574 
z"/>
<path fill="#B7ACD5" opacity="1.000000" stroke="none" 
	d="
M73.227654,143.031555 
	C70.632645,138.125580 69.383247,133.386673 72.968277,128.299683 
	C74.806648,126.985443 76.498970,125.986755 78.930664,124.978729 
	C85.862877,122.085632 89.173126,126.799339 93.041275,130.042633 
	C95.154655,133.772964 95.586517,137.529404 93.053955,141.673080 
	C89.157448,143.588776 85.423477,145.160721 81.387100,146.897308 
	C78.567886,145.776581 76.051079,144.491211 73.227654,143.031555 
z"/>
<path fill="#8BCCE1" opacity="1.000000" stroke="none" 
	d="
M93.391479,129.999756 
	C89.173126,126.799339 85.862877,122.085632 79.266106,124.948463 
	C78.887878,120.886574 78.913574,116.845589 79.014420,112.402359 
	C84.399338,108.975166 89.766716,106.272507 96.485138,109.069977 
	C99.948174,113.307518 102.039284,117.726143 100.941582,123.517799 
	C98.519127,125.958549 96.130409,127.957710 93.391479,129.999756 
z"/>
</svg>